<svg xmlns:xlink="http://www.w3.org/1999/xlink" width="16" height="16" viewBox="0 0 16 16" fill="none" xmlns="http://www.w3.org/2000/svg"><path d="M4 10V9H5V10H4ZM1 5C1 3.89543 1.89543 3 3 3H10C11.1046 3 12 3.89543 12 5V11.5C12 11.7761 12.2239 12 12.5 12C12.7761 12 13 11.7761 13 11.5V5C14.1046 5 15 5.89543 15 7V11.5C15 12.8807 13.8807 14 12.5 14H3.5C2.11929 14 1 12.8807 1 11.5V5ZM3.5 6C3.22386 6 3 6.22386 3 6.5C3 6.77614 3.22386 7 3.5 7H9.5C9.77614 7 10 6.77614 10 6.5C10 6.22386 9.77614 6 9.5 6H3.5ZM3.5 8C3.22386 8 3 8.22386 3 8.5V10.5C3 10.7761 3.22386 11 3.5 11H5.5C5.77614 11 6 10.7761 6 10.5V8.5C6 8.22386 5.77614 8 5.5 8H3.5ZM7.5 8C7.22386 8 7 8.22386 7 8.5C7 8.77614 7.22386 9 7.5 9H9.5C9.77614 9 10 8.77614 10 8.5C10 8.22386 9.77614 8 9.5 8H7.5ZM7.5 10C7.22386 10 7 10.2239 7 10.5C7 10.7761 7.22386 11 7.5 11H9.5C9.77614 11 10 10.7761 10 10.5C10 10.2239 9.77614 10 9.5 10H7.5Z" fill="#FFFFFF"></path></svg>