<?xml version="1.0" encoding="iso-8859-1"?>
<!-- Generator: Adobe Illustrator 19.0.0, SVG Export Plug-In . SVG Version: 6.00 Build 0)  -->
<svg version="1.1" id="Layer_1" xmlns="http://www.w3.org/2000/svg" xmlns:xlink="http://www.w3.org/1999/xlink" x="0px" y="0px"
	 viewBox="0 0 458.571 458.571" style="enable-background:new 0 0 458.571 458.571;" xml:space="preserve">
<g id="XMLID_657_">
	<g>
		<g>
			<path d="M308.543,398.926h-40.044v-66.748c60.047-17.098,104.145-72.449,104.145-137.907c0-5.85-4.742-10.593-10.593-10.593
				c-5.851,0-10.593,4.742-10.593,10.593c0,67.366-54.806,122.172-122.172,122.172s-122.173-54.806-122.173-122.172
				c0-5.85-4.743-10.593-10.593-10.593s-10.593,4.742-10.593,10.593c0,65.457,44.097,120.808,104.145,137.907v66.748h-40.044
				c-16.444,0-29.823,13.378-29.823,29.822c0,16.444,13.378,29.823,29.823,29.823h158.514c16.444,0,29.822-13.378,29.822-29.823
				C338.365,412.305,324.987,398.926,308.543,398.926z M211.258,337.629h36.056v61.297h-36.056V337.629z M308.543,437.385H150.028
				c-4.762,0-8.637-3.875-8.637-8.637c0-4.762,3.875-8.636,8.637-8.636h50.636h57.242h50.636c4.762,0,8.637,3.874,8.637,8.636
				C317.179,433.511,313.305,437.385,308.543,437.385z"/>
			<path d="M224.579,281.302h9.413c25.573,0,49.148-10.079,66.383-28.381c16.849-17.891,26.128-41.947,26.128-67.738V96.119
				c0-25.791-9.279-49.847-26.128-67.738C283.14,10.079,259.565,0,233.992,0h-9.413c-25.573,0-49.149,10.079-66.384,28.381
				c-16.849,17.891-26.128,41.947-26.128,67.738v89.065c0,25.79,9.279,49.847,26.128,67.738
				C175.431,271.223,199.007,281.302,224.579,281.302z M153.252,183.352L153.252,183.352h31.151c5.85,0,10.593-4.742,10.593-10.593
				c0-5.85-4.742-10.593-10.593-10.593h-31.15v-17.135h31.15c5.85,0,10.593-4.743,10.593-10.593c0-5.85-4.742-10.593-10.593-10.593
				h-31.15v-17.134h31.15c5.85,0,10.593-4.743,10.593-10.593c0-5.85-4.742-10.593-10.593-10.593h-30.487
				c4.613-37.337,33.439-64.34,70.663-64.34h9.413c37.223,0,66.05,27.003,70.662,64.34h-32.155c-5.85,0-10.593,4.743-10.593,10.593
				c0,5.85,4.743,10.593,10.593,10.593h32.818v17.134h-32.818c-5.85,0-10.593,4.743-10.593,10.593
				c0,5.85,4.743,10.593,10.593,10.593h32.818v17.135h-32.818c-5.85,0-10.593,4.742-10.593,10.593
				c0,5.85,4.743,10.593,10.593,10.593h32.818v1.832c0,42.719-30.664,74.932-71.326,74.932h-9.413
				c-40.663,0-71.326-32.214-71.326-74.932V183.352z"/>
		</g>
	</g>
</g>
<g>
</g>
<g>
</g>
<g>
</g>
<g>
</g>
<g>
</g>
<g>
</g>
<g>
</g>
<g>
</g>
<g>
</g>
<g>
</g>
<g>
</g>
<g>
</g>
<g>
</g>
<g>
</g>
<g>
</g>
</svg>
